{"title":"Spartacus.Blood.and.Sand.S01E10. Party Favors.HDTV.XviD-Ipolitan","uid":5467658,"size":620258972,"categoryP":"video","categoryS":"tv_shows","magnet":"?xt=urn:btih:35767d87fa56807a05cd52f4323766b73c928a88&amp;dn=Spartacus.Blood.and.Sand.S01E10.+Party+Favors.HDTV.XviD-Ipolitan&amp;tr=udp%3A%2F%2Ftracker.openbittorrent.com%3A80&amp;tr=udp%3A%2F%2Fopen.demonii.com%3A1337&amp;tr=udp%3A%2F%2Ftracker.coppersurfer.tk%3A6969&amp;tr=udp%3A%2F%2Fexodus.desync.com%3A6969","seeders":1,"leechers":1,"uploader":"Ipolitan","files":1,"time":1269702654,"description":"Release Date----- 26.03.2010\n\n      Complete name : Spartacus.Blood.and.Sand.S01E10. Party Favors.HDTV.XviD-Ipolitan.avi\n      Format : AVI\n      Format/Info : Audio Video Interleave\n      File size : 592 MiB\n      Duration : 50mn 32s\n      Overall bit rate : 1 636 Kbps\n      Writing application : MEncoder Sherpya-SVN-r30075-4.2.5\n      Writing library : MPlayer\n   Video\n      Format : MPEG-4 Visual\n      Format profile : Simple@L3\n      Format settings, BVOP : No\n      Format settings, QPel : No\n      Format settings, GMC : No warppoints\n      Format settings, Matrix : Default\n      Codec ID : XVID\n      Codec ID/Hint : XviD\n      Duration : 50mn 32s\n      Bit rate : 1 500 Kbps\n      Width : 1 280 pixels\n      Height : 720 pixels\n      Display aspect ratio : 16/9\n      Frame rate : 23.976 fps\n      Resolution : 24 bits\n      Colorimetry : 4:2:0\n      Scan type : Progressive\n      Bits/(Pixel*Frame) : 0.068\n      Stream size : 542 MiB (92%)\n      Writing library : XviD 50\n   Audio\n      Format : MPEG Audio\n      Format version : Version 1\n      Format profile : Layer 3\n      Codec ID : 55\n      Codec ID/Hint : MP3\n      Duration : 50mn 32s\n      Bit rate mode : Variable\n      Bit rate : 124 Kbps\n      Channel(s) : 2 channels\n      Sampling rate : 44.1 KHz\n      Resolution : 16 bits\n      Stream size : 44.9 MiB (8%)\n      Alignment : Aligned on interleaves\n      Interleave, duration : 26 ms (0.63 video frame)\n      Interleave, preload duration : 376 ms\n      Writing library : LAME3.98.2\n\nSeed and enjoy !\n\n\n","torrent":{"xt":"urn:btih:35767d87fa56807a05cd52f4323766b73c928a88","amp;dn":"Spartacus.Blood.and.Sand.S01E10.+Party+Favors.HDTV.XviD-Ipolitan","amp;tr":["udp%3A%2F%2Ftracker.openbittorrent.com%3A80","udp%3A%2F%2Fopen.demonii.com%3A1337","udp%3A%2F%2Ftracker.coppersurfer.tk%3A6969","udp%3A%2F%2Fexodus.desync.com%3A6969"],"infoHash":"35767d87fa56807a05cd52f4323766b73c928a88","infoHashBuffer":{"type":"Buffer","data":[53,118,125,135,250,86,128,122,5,205,82,244,50,55,102,183,60,146,138,136]},"announce":[],"urlList":[]}}